<svg width="180" height="181" viewBox="0 0 180 181" fill="none" xmlns="http://www.w3.org/2000/svg">
  <rect width="160.888" height="161" rx="23" fill="#0053DB" />
  <path fill-rule="evenodd" clip-rule="evenodd"
    d="M80.4665 140.875C65.2468 140.875 51.5728 133.013 43.9629 119.891C36.2936 106.768 36.2936 91.1033 43.9629 77.9805L76.067 22.652C78.0289 19.2827 82.904 19.2827 84.8659 22.652L116.97 77.9805C124.58 91.1033 124.58 106.768 116.97 119.891C109.36 133.013 95.6862 140.875 80.4665 140.875ZM81.6749 74.6299C81.2346 73.5127 79.6545 73.5127 79.2142 74.6299L76.0082 82.7645C73.5884 88.9043 68.7317 93.7644 62.5962 96.1859L54.4672 99.3941C53.3508 99.8347 53.3508 101.416 54.4672 101.857L62.5962 105.065C68.7317 107.486 73.5884 112.346 76.0082 118.486L79.2142 126.621C79.6545 127.738 81.2346 127.738 81.6749 126.621L84.881 118.486C87.3008 112.346 92.1575 107.486 98.293 105.065L106.422 101.857C107.538 101.416 107.538 99.8347 106.422 99.3941L98.293 96.1859C92.1575 93.7644 87.3008 88.9043 84.881 82.7645L81.6749 74.6299Z"
    fill="white" />
  <rect x="101" y="102" width="79" height="79" rx="39.5" fill="#C53030" />
  <path fill-rule="evenodd" clip-rule="evenodd"
    d="M143.773 114.267L146.154 116.71C152.628 123.35 161.396 133.186 161.396 146.243C161.396 152.006 159.172 157.534 155.212 161.609C151.252 165.685 145.882 167.974 140.282 167.974C134.682 167.974 129.312 165.685 125.352 161.609C121.392 157.534 119.168 152.006 119.168 146.243C119.168 139.811 122.302 133.203 125.81 127.764L127.127 125.722L135.745 131.621L143.773 114.267ZM155.405 145.945L155.033 148.364C154.57 151.374 153.193 154.157 151.099 156.312C149.004 158.468 146.301 159.885 143.375 160.362L141.026 160.744L140.282 155.908L142.632 155.525C144.564 155.21 146.351 154.274 147.734 152.85C149.118 151.425 150.028 149.587 150.334 147.598L150.705 145.18L155.405 145.945Z"
    fill="white" />
</svg>